<svg width="19" height="19" viewBox="0 0 19 19" fill="none" xmlns="http://www.w3.org/2000/svg">
<path fill-rule="evenodd" clip-rule="evenodd" d="M9.6799 1.39578C7.49833 1.98574 5.51017 3.12242 3.91021 4.69444C2.31025 6.26646 1.15337 8.2199 0.552919 10.3634C0.748014 10.3661 0.934317 10.4436 1.07218 10.5792L8.26192 17.6434C8.39999 17.7789 8.47881 17.9619 8.48161 18.1536C10.6632 17.5636 12.6513 16.427 14.2513 14.8549C15.8513 13.2829 17.0081 11.3295 17.6086 9.186C17.4135 9.18326 17.2272 9.10582 17.0893 8.97016L9.89958 1.90597C9.76151 1.77051 9.68269 1.58746 9.6799 1.39578ZM17.9241 7.70939C18.1243 6.38817 18.1152 5.04447 17.8972 3.72598C17.7893 3.07117 17.4744 2.46633 16.9971 1.9972C16.5198 1.52807 15.9044 1.21845 15.238 1.11223C13.8958 0.896333 12.5277 0.887395 11.1828 1.08574L17.9241 7.70939ZM6.97975 18.4636L0.237369 11.84C0.0372246 13.1612 0.0463193 14.5049 0.264331 15.8234C0.37225 16.4783 0.68729 17.0833 1.16477 17.5524C1.64226 18.0216 2.25795 18.3311 2.92453 18.4371C4.26646 18.6514 5.63504 18.6603 6.97975 18.4636ZM10.7284 6.24259C10.7284 6.04743 10.6495 5.86027 10.509 5.72227C10.3686 5.58427 10.1781 5.50674 9.97947 5.50674C9.78084 5.50674 9.59035 5.58427 9.44989 5.72227C9.30944 5.86027 9.23054 6.04743 9.23054 6.24259V8.15581H8.18203C7.9834 8.15581 7.79291 8.23334 7.65246 8.37134C7.51201 8.50934 7.4331 8.6965 7.4331 8.89166V9.92186H5.48588C5.28725 9.92186 5.09676 9.99939 4.95631 10.1374C4.81585 10.2754 4.73695 10.4626 4.73695 10.6577C4.73695 10.8529 4.81585 11.04 4.95631 11.178C5.09676 11.316 5.28725 11.3936 5.48588 11.3936H7.4331V13.3068C7.4331 13.5019 7.51201 13.6891 7.65246 13.8271C7.79291 13.9651 7.9834 14.0426 8.18203 14.0426C8.38066 14.0426 8.57116 13.9651 8.71161 13.8271C8.85206 13.6891 8.93096 13.5019 8.93096 13.3068V11.3936H9.97947C10.1781 11.3936 10.3686 11.316 10.509 11.178C10.6495 11.04 10.7284 10.8529 10.7284 10.6577V9.62752H12.6756C12.8743 9.62752 13.0647 9.54999 13.2052 9.41199C13.3456 9.27399 13.4246 9.08683 13.4246 8.89166C13.4246 8.6965 13.3456 8.50934 13.2052 8.37134C13.0647 8.23334 12.8743 8.15581 12.6756 8.15581H10.7284V6.24259ZM8.93096 9.62752H9.23054V9.92186H8.93096V9.62752Z" fill="white"/>
</svg>
