<svg width="19" height="19" viewBox="0 0 19 19" fill="none" xmlns="http://www.w3.org/2000/svg">
<path d="M17.0549 0.925781C16.8028 0.925781 16.6047 1.02283 16.4156 1.18163L7.86069 9.56294C7.82467 9.59823 7.79765 9.63352 5.55538 12.7037L2.64673 15.5622L2.38558 15.2975C2.19647 15.1299 1.98035 15.0417 1.74621 15.0417C1.24193 15.0417 0.845703 15.4299 0.845703 15.9239C0.845703 16.1533 0.935754 16.365 1.10685 16.5503L2.90788 18.3148C3.25907 18.6677 3.8264 18.6765 4.1866 18.3413C4.54681 17.9972 4.55581 17.4414 4.1866 17.062L3.91645 16.8062L6.8251 13.9565L10.0399 11.698L18.5948 3.31666C18.946 2.97259 18.946 2.40795 18.5948 2.06387L17.6943 1.18163C17.5052 1.01401 17.289 0.925781 17.0549 0.925781ZM15.7041 10.6305C15.1071 10.6305 14.5345 10.8628 14.1123 11.2765C13.6901 11.6901 13.4529 12.2511 13.4529 12.8361C13.4529 13.421 13.6901 13.982 14.1123 14.3957C14.5345 14.8093 15.1071 15.0417 15.7041 15.0417C16.3012 15.0417 16.8738 14.8093 17.296 14.3957C17.7182 13.982 17.9554 13.421 17.9554 12.8361C17.9554 12.2511 17.7182 11.6901 17.296 11.2765C16.8738 10.8628 16.3012 10.6305 15.7041 10.6305Z" fill="white"/>
</svg>
