<svg width="25" height="24" viewBox="0 0 25 24" fill="none" xmlns="http://www.w3.org/2000/svg">
<path d="M20.1885 6.55031C18.5527 4.36301 15.9159 2.94336 12.9415 2.94336C9.97349 2.94336 7.34151 4.35699 5.70496 6.53636C6.92877 7.28795 7.92822 8.18556 8.49114 9.52083C8.79224 10.2351 8.94721 11.0006 8.94721 11.7736C8.94721 12.5467 8.79224 13.3122 8.49114 14.0264C7.91684 15.3887 6.9188 16.2128 5.69629 16.9993C7.33221 19.1852 9.96824 20.6038 12.9415 20.6038C15.9038 20.6038 18.5313 19.1957 20.1685 17.0235C18.978 16.186 17.97 15.3976 17.3919 14.0264C17.0908 13.3121 16.9358 12.5466 16.9358 11.7736C16.9358 11.0005 17.0908 10.235 17.3919 9.52078C17.9663 8.1583 18.9635 7.33376 20.1885 6.55031Z" fill="black" fill-opacity="0.15"/>
<path d="M3.9541 11.7736C3.9541 9.81298 4.60444 8.00161 5.70473 6.53636M3.9541 11.7736C3.9541 13.7291 4.60102 15.5361 5.69606 16.9993M3.9541 11.7736H21.9285M5.70473 6.53636C7.34128 4.35699 9.97326 2.94336 12.9413 2.94336M5.70473 6.53636C6.92854 7.28795 7.92799 8.18556 8.49091 9.52083C8.79201 10.2351 8.94698 11.0006 8.94698 11.7736C8.94698 12.5467 8.79201 13.3122 8.49091 14.0264C7.91661 15.3887 6.91857 16.2128 5.69606 16.9993M12.9413 2.94336C15.9156 2.94336 18.5525 4.36302 20.1883 6.55031M12.9413 2.94336V20.6038M12.9413 20.6038C9.96801 20.6038 7.33197 19.1852 5.69606 16.9993M12.9413 20.6038C15.9035 20.6038 18.531 19.1957 20.1683 17.0235M20.1883 6.55031C21.2822 8.0131 21.9285 9.8192 21.9285 11.7736M20.1883 6.55031C18.9633 7.33376 17.966 8.15831 17.3916 9.52078C17.0906 10.235 16.9356 11.0005 16.9356 11.7736C16.9356 12.5466 17.0905 13.3121 17.3916 14.0264C17.9697 15.3976 18.9777 16.186 20.1683 17.0235M21.9285 11.7736C21.9285 13.7399 21.2743 15.5561 20.1683 17.0235" stroke="white" stroke-width="2" stroke-linecap="round" stroke-linejoin="round"/>
</svg>
