<svg width="19" height="19" viewBox="0 0 19 19" fill="none" xmlns="http://www.w3.org/2000/svg">
<path d="M16.2158 0.925781L5.87053 11.0686L8.17116 13.3241L7.93277 13.5578L18.5164 3.1813C18.5164 2.27909 17.1353 0.925781 16.2158 0.925781ZM5.93486 2.63374C5.83594 2.62918 5.73681 2.63653 5.63971 2.65563C5.78729 3.44395 6.1619 4.08314 6.78624 4.6025C6.95359 4.41611 7.05711 4.18296 7.08222 3.93586C7.10734 3.68877 7.05278 3.44018 6.92625 3.22508C6.82471 3.05302 6.68073 2.90871 6.50752 2.80539C6.3343 2.70207 6.13739 2.64305 5.93486 2.63374ZM5.02294 2.9806C4.83443 3.1653 4.71335 3.40582 4.67846 3.66485C4.64357 3.92388 4.69682 4.18696 4.82996 4.4133C4.96329 4.63959 5.16907 4.81642 5.41537 4.91636C5.66166 5.0163 5.93471 5.03377 6.19217 4.96605C5.60566 4.42072 5.21213 3.74963 5.02294 2.9806ZM6.02189 12.1518C4.60292 14.2849 2.11159 16.1249 0.545045 18.0466C0.36266 18.2655 0.832623 18.7218 1.05701 18.5474C3.01443 17.0116 4.8905 14.5669 7.06625 13.1757L6.02189 12.1518Z" fill="white"/>
</svg>
