<svg width="19" height="19" viewBox="0 0 19 19" fill="none" xmlns="http://www.w3.org/2000/svg">
<path d="M10.6298 0.962972C9.9247 0.965764 9.22395 1.04057 8.55165 1.16379C5.1437 1.78832 3.22276 3.4261 2.18624 5.72608C3.41283 5.62309 4.62261 5.5135 5.80005 5.52137C6.74761 5.52772 7.67427 5.6101 8.57193 5.83321C9.16725 5.98131 9.54063 6.53759 9.65675 7.176C9.77287 7.81441 9.69046 8.56892 9.45811 9.35733L9.44683 9.39558L9.42844 9.43053C9.12344 10.0077 8.47503 10.4671 7.64857 10.9535C6.82212 11.44 5.81369 11.9137 4.80871 12.3256C3.80374 12.7375 2.80419 13.0864 1.99617 13.3173C1.71112 13.3988 1.45193 13.4646 1.22068 13.5144C1.31007 14.8315 1.47853 16.1961 1.69253 17.5755C7.19849 15.957 12.4397 14.1952 17.5485 12.3603C18.5676 10.4792 18.7245 8.7025 18.2152 6.9979C17.3353 4.05275 15.8222 2.46845 14.0808 1.65943C12.9925 1.1538 11.805 0.958317 10.6298 0.962972ZM4.17708 6.33995C3.82107 6.36153 3.45936 6.38886 3.09521 6.41763L1.39208 12.6945C1.52506 12.661 1.66463 12.6241 1.81466 12.5812C1.98106 12.5333 2.14689 12.4832 2.31214 12.4309C2.70595 11.1162 4.01362 6.87033 4.17708 6.33995ZM2.342 6.47797C1.91494 6.51292 1.48442 6.54795 1.04888 6.57825C1.0363 6.59708 1.02082 6.61832 0.997087 6.67417C0.935001 6.82015 0.864466 7.07267 0.804069 7.3818C0.683237 8.00007 0.593054 8.85119 0.540595 9.70378C0.488215 10.5564 0.472615 11.4148 0.493716 12.0556C0.504248 12.376 0.52476 12.6439 0.55038 12.8155C0.552266 12.8285 0.553445 12.8287 0.555488 12.8405C0.573564 12.8401 0.59608 12.8386 0.616239 12.8378L2.342 6.47797ZM7.86359 6.50052C7.25075 6.50052 6.7374 7.0329 6.7374 7.6917C6.7374 8.3505 7.25075 8.88301 7.86359 8.88301C8.47644 8.88301 8.98979 8.35055 8.98979 7.6917C8.98979 7.0329 8.47644 6.50052 7.86359 6.50052ZM7.86359 7.26214C8.10408 7.26214 8.28248 7.45538 8.28248 7.6917C8.28248 7.92806 8.10408 8.12138 7.86359 8.12138C7.62311 8.12138 7.44471 7.92801 7.44471 7.6917C7.44471 7.45538 7.62311 7.26214 7.86359 7.26214ZM16.9089 13.3917C12.0439 15.126 7.0496 16.7922 1.81427 18.3294C1.8305 18.4274 1.8461 18.5253 1.86268 18.6234C7.66291 17.4957 11.9212 15.7053 16.4553 14.0044C16.6122 13.8051 16.7634 13.6008 16.9089 13.3917Z" fill="white"/>
</svg>
