<svg width="18" height="18" viewBox="0 0 18 18" fill="none" xmlns="http://www.w3.org/2000/svg">
<path fill-rule="evenodd" clip-rule="evenodd" d="M0.365234 9.24343C0.697564 6.9536 1.50182 4.62315 3.2103 2.94883C4.91789 1.27363 7.29553 0.485036 9.62995 0.15918L17.9778 8.34445C17.6455 10.6334 16.8412 12.9647 15.1328 14.6391C13.4252 16.3143 11.0484 17.1028 8.71311 17.4287L0.365234 9.24343ZM9.11929 5.40291C9.18202 5.34137 9.2565 5.29254 9.33848 5.25923C9.42046 5.22592 9.50833 5.20878 9.59707 5.20878C9.68581 5.20878 9.77368 5.22592 9.85566 5.25923C9.93764 5.29254 10.0121 5.34137 10.0749 5.40291L10.8746 6.18709L11.6753 5.40291C11.7371 5.33784 11.8117 5.28565 11.8945 5.24945C11.9774 5.21325 12.0668 5.19379 12.1575 5.19222C12.2482 5.19065 12.3383 5.20701 12.4224 5.24032C12.5065 5.27363 12.5829 5.32321 12.6471 5.3861C12.7112 5.44899 12.7618 5.52391 12.7957 5.60638C12.8297 5.68885 12.8464 5.77718 12.8448 5.86611C12.8432 5.95504 12.8234 6.04274 12.7864 6.12398C12.7495 6.20522 12.6963 6.27834 12.6299 6.33898L11.8302 7.12404L12.6299 7.90821C12.6963 7.96885 12.7495 8.04197 12.7864 8.12321C12.8234 8.20445 12.8432 8.29215 12.8448 8.38108C12.8464 8.47001 12.8297 8.55834 12.7957 8.64081C12.7618 8.72328 12.7112 8.7982 12.6471 8.86109C12.5829 8.92398 12.5065 8.97356 12.4224 9.00687C12.3383 9.04018 12.2482 9.05654 12.1575 9.05497C12.0668 9.0534 11.9774 9.03394 11.8945 8.99774C11.8117 8.96154 11.7371 8.90935 11.6753 8.84428L10.8746 8.0601L10.1271 8.79394L10.9268 9.57812C11.0462 9.70367 11.1111 9.86973 11.108 10.0413C11.1049 10.2129 11.034 10.3766 10.9103 10.498C10.7865 10.6193 10.6196 10.6888 10.4446 10.6918C10.2696 10.6949 10.1002 10.6312 9.97218 10.5142L9.17153 9.73177L8.42401 10.4647L9.22377 11.2498C9.28825 11.3109 9.33967 11.384 9.37503 11.4648C9.41039 11.5457 9.42899 11.6326 9.42972 11.7205C9.43046 11.8085 9.41333 11.8957 9.37932 11.977C9.34532 12.0584 9.29513 12.1323 9.23168 12.1945C9.16823 12.2567 9.09279 12.3058 9.00976 12.3391C8.92673 12.3723 8.83778 12.389 8.74809 12.3882C8.65841 12.3874 8.56978 12.3691 8.48739 12.3344C8.40499 12.2996 8.33048 12.2491 8.2682 12.1859L7.46845 11.4017L6.6687 12.1859C6.54065 12.3028 6.37129 12.3665 6.1963 12.3635C6.02131 12.3605 5.85435 12.291 5.73059 12.1696C5.60683 12.0483 5.53594 11.8846 5.53285 11.713C5.52977 11.5414 5.59472 11.3753 5.71404 11.2498L6.51289 10.4647L5.71314 9.68055C5.64677 9.61992 5.59354 9.5468 5.55662 9.46556C5.51971 9.38432 5.49986 9.29661 5.49825 9.20768C5.49665 9.11876 5.51334 9.03042 5.54731 8.94795C5.58128 8.86548 5.63185 8.79057 5.69599 8.72768C5.76013 8.66479 5.83653 8.6152 5.92064 8.58189C6.00475 8.54858 6.09484 8.53222 6.18553 8.53379C6.27623 8.53536 6.36567 8.55483 6.44853 8.59103C6.53139 8.62723 6.60596 8.67942 6.6678 8.74449L7.46845 9.52866L8.21597 8.79571L7.41621 8.01065C7.29323 7.88568 7.22523 7.71835 7.22685 7.54469C7.22847 7.37104 7.29959 7.20495 7.42489 7.08221C7.55018 6.95947 7.71963 6.88989 7.89674 6.88847C8.07385 6.88704 8.24444 6.95388 8.37178 7.07458L9.17153 7.85788L9.91905 7.12492L9.12019 6.34074C8.9937 6.21656 8.92265 6.04822 8.92265 5.87271C8.92265 5.6972 8.9937 5.52886 9.12019 5.40468" fill="white"/>
</svg>
