<svg width="19" height="19" viewBox="0 0 19 19" fill="none" xmlns="http://www.w3.org/2000/svg">
<path d="M2.59322 0.887207C1.35842 0.887207 0.341309 1.88471 0.341309 3.09571C0.341309 4.30671 1.35842 5.30422 2.59322 5.30422C3.82801 5.30422 4.84513 4.30671 4.84513 3.09571C4.84513 1.88471 3.82801 0.887207 2.59322 0.887207ZM11.5543 1.55418C11.3189 1.55784 11.0839 1.57357 10.8502 1.60129C8.99689 1.81404 7.26743 2.7453 5.94781 4.03948C5.02077 4.94497 4.25287 6.24798 4.00066 8.66335C3.99174 8.68603 3.98398 8.70912 3.97739 8.73255V8.75537C3.95833 8.79252 3.94251 8.83118 3.9301 8.87095C3.9271 8.88788 3.9331 8.89672 3.9301 8.91659V9.00861C3.93682 9.104 3.96071 9.19746 4.00066 9.28468C4.03819 9.94649 4.13277 10.6223 4.37598 11.2635H4.35271C4.36397 11.3268 4.44053 11.6426 4.44654 11.9533C4.44954 12.1867 4.36397 12.3994 4.35271 12.4598C3.89482 12.9052 3.34686 13.3711 2.82817 13.7709C2.30948 14.1706 1.85985 14.5159 1.53707 14.8295H1.51455C1.32162 15.0288 1.18033 15.2707 1.10261 15.5347C1.02488 15.7988 1.01299 16.0772 1.06792 16.3467C1.18202 16.8621 1.48378 17.3074 1.88837 17.7042C2.29071 18.0981 2.74785 18.3911 3.27254 18.5089C3.79724 18.6267 4.43378 18.475 4.84437 18.0723C5.17315 17.7499 5.48992 17.2957 5.89977 16.784C6.31037 16.2717 6.77651 15.7166 7.23665 15.2653C7.18411 15.3168 7.41305 15.1968 7.70655 15.1968C7.94375 15.1968 8.14042 15.2189 8.29205 15.2425C8.33108 15.2484 8.4099 15.2624 8.43317 15.2653C9.08697 15.5038 9.7768 15.5936 10.4509 15.6334C10.4591 15.6334 10.4659 15.6569 10.4741 15.6569C10.5277 15.6702 10.5825 15.6776 10.6385 15.679C10.6614 15.688 10.6847 15.6959 10.7083 15.7026H10.8502C10.8973 15.6992 10.9443 15.6915 10.9913 15.6798C11.0206 15.6768 11.0319 15.6592 11.0611 15.6562H11.0852C13.3453 15.4722 14.8609 14.6697 15.8232 13.7238C17.1428 12.4303 18.0924 10.7335 18.31 8.91659C18.527 7.09826 17.949 5.15772 16.3156 3.55582C14.8879 2.15562 13.196 1.54313 11.5543 1.55418ZM2.59322 2.35954C3.01583 2.35954 3.34385 2.68199 3.34385 3.09571C3.34385 3.50944 3.01507 3.83188 2.59322 3.83188C2.17136 3.83188 1.84258 3.50944 1.84258 3.09571C1.84258 2.68199 2.17136 2.35954 2.59322 2.35954ZM11.5543 3.02651C12.8206 3.00369 14.09 3.44392 15.2602 4.59087C16.6001 5.90199 16.9792 7.33678 16.8088 8.75464C16.6384 10.1725 15.8787 11.5992 14.767 12.6887C14.0202 13.4219 12.9355 13.9947 11.0379 14.1611L5.50193 8.73182C5.72187 6.65582 6.24356 5.86518 7.02647 5.09735C8.13742 4.00782 9.56588 3.23926 11.0146 3.07289C11.1963 3.05228 11.3727 3.02946 11.5543 3.02651ZM5.85323 11.1936L8.52699 13.793C8.25582 13.7468 7.98104 13.7238 7.7058 13.7245C7.24866 13.7267 6.66842 13.7532 6.18201 14.2303C5.66478 14.7463 5.17902 15.2917 4.72728 15.8638C4.30767 16.3865 3.93535 16.8702 3.76571 17.0365C3.67714 17.1234 3.72067 17.1087 3.60057 17.0829C3.48047 17.0571 3.23726 16.9106 2.96778 16.6456C2.70356 16.3872 2.5722 16.148 2.54518 16.025C2.5189 15.9014 2.49263 15.9352 2.5692 15.8631C2.72683 15.7085 3.20499 15.3345 3.74169 14.9208C4.27839 14.5071 4.89091 14.0227 5.43062 13.4941C5.95006 12.9854 5.95607 12.3957 5.94706 11.9297C5.94105 11.5764 5.88551 11.3688 5.85323 11.1936Z" fill="white"/>
</svg>
