<svg width="17" height="19" viewBox="0 0 17 19" fill="none" xmlns="http://www.w3.org/2000/svg">
<path d="M13.4919 1.51846C10.8298 0.296802 7.43332 1.02488 5.89074 3.14039L4.88454 4.52783C4.39407 5.20405 4.13719 5.97147 4.13997 6.75221C4.14276 7.53294 4.4051 8.29919 4.90039 8.97319L4.55891 11.0427C4.4163 11.8874 4.07562 12.7069 3.53686 13.4444L2.86342 14.371L2.86422 14.3717L0.771791 17.2714C0.630563 17.4742 0.59492 17.7129 0.672518 17.9364C0.750116 18.1599 0.934766 18.3503 1.18682 18.4666C1.43887 18.583 1.73822 18.6161 2.02059 18.5588C2.30296 18.5015 2.54583 18.3584 2.69704 18.1602L4.7966 15.2605L5.47004 14.3338C6.00879 13.5963 6.72185 12.947 7.56959 12.4301L9.64221 11.1688C10.6296 11.1766 11.602 10.9757 12.4598 10.5866C13.3177 10.1975 14.0304 9.63425 14.5251 8.95428L15.5313 7.56621L15.5328 7.56431C17.0564 5.44313 16.1548 2.74011 13.4919 1.51846ZM10.6959 10.1312C10.2308 10.2182 9.75092 10.2437 9.27538 10.2068L9.30707 10.2087L8.5758 9.10746L9.97814 9.06963L10.6849 10.1331L10.6959 10.1312ZM12.332 9.52476C11.9905 9.729 11.615 9.89037 11.2197 10.0064L10.5882 9.05703L11.9905 9.0192L12.3281 9.52728L12.332 9.52476ZM13.0768 8.96058C12.9754 9.05766 12.8684 9.14948 12.7559 9.23605L12.6006 9.00029L13.0459 8.98958L13.0768 8.96058ZM13.4967 8.48024L13.4507 8.54202L12.3233 8.57164L11.6657 7.58827L13.0681 7.55045L13.5981 8.3403L13.4967 8.48024ZM14.1971 7.51515L13.9229 7.89337L13.6781 7.53154L14.1971 7.51515ZM14.6819 6.81607C14.6268 6.91088 14.5668 7.00383 14.5021 7.09469L14.5171 7.07326L13.3929 7.10289L12.7353 6.11321L14.1376 6.07539L14.6605 6.85326L14.6819 6.81607ZM15.0012 6.03252C14.9775 6.1275 14.9484 6.22205 14.9141 6.31619L14.7318 6.05647L14.9965 6.05143L15.0012 6.03252ZM14.9862 4.6205C15.0733 4.94577 15.1034 5.28112 15.0725 5.61648L14.4466 5.63413L13.789 4.65075L14.9862 4.6205ZM14.1471 3.19586C14.4458 3.49844 14.6764 3.83506 14.8348 4.19185L13.5038 4.22841L12.8383 3.23243L14.1471 3.19586ZM12.8977 2.33793C13.1742 2.46401 13.4254 2.61151 13.6528 2.77478L12.5531 2.80441L12.0444 2.03725C12.3416 2.11288 12.6276 2.21369 12.8977 2.33793ZM9.92189 1.93072C10.3904 1.86144 10.87 1.85377 11.3417 1.90802L11.9509 2.81701L10.5486 2.85484L9.92189 1.93072ZM8.24541 2.47914C8.59507 2.29026 8.97684 2.14209 9.37917 2.03914L9.93853 2.87375L8.53618 2.91787L8.24541 2.47914ZM7.55613 2.94183C7.638 2.87417 7.72251 2.80987 7.80966 2.74893L7.93404 2.93048L7.55613 2.94183ZM6.9429 3.58291C6.99255 3.51693 7.04431 3.45263 7.09819 3.39002L8.21927 3.35913L8.87686 4.3425L7.47452 4.38033L6.9429 3.58291ZM6.33759 4.41689L6.62044 4.02732L6.87238 4.39924L6.33759 4.41689ZM5.91372 5.00124L6.01672 4.85814L7.14968 4.82789L7.80728 5.81756L6.40494 5.85539L5.87331 5.05797L5.91372 5.00124ZM5.46132 5.88564C5.49566 5.77722 5.53686 5.66985 5.58492 5.56353L5.79488 5.8743L5.46132 5.88564ZM5.39081 7.32288C5.31927 6.99178 5.30859 6.65415 5.35912 6.3206L6.0801 6.30295L6.7377 7.28632L5.39081 7.32288ZM6.12367 8.74121C5.85811 8.43853 5.65386 8.10458 5.51837 7.75153L7.02292 7.70867L7.68051 8.69835L6.12367 8.74121ZM7.5181 9.75799C7.16662 9.59563 6.84485 9.39562 6.56181 9.16356L7.96574 9.127L8.6265 10.1167L8.67087 10.1261C8.26649 10.0478 7.87829 9.92388 7.5181 9.75799ZM5.97076 10.0234C6.25757 10.2306 6.57501 10.4148 6.92309 10.5762L6.92388 10.5768C7.25875 10.7311 7.61298 10.857 7.98079 10.9525L6.41286 11.9063C6.27025 11.9882 6.0801 12.0008 5.92956 11.9315C5.85543 11.8965 5.79572 11.8451 5.75773 11.7835C5.71974 11.7219 5.70511 11.6529 5.71565 11.5848L5.97076 10.0234ZM10.2237 3.3087L10.8813 4.29207L9.479 4.3299L8.8214 3.34652L10.2237 3.3087ZM11.1666 4.72072L11.8242 5.7041L10.4218 5.74192L9.76422 4.75855L11.1666 4.72072ZM9.36016 7.21068L8.70256 6.2273L10.1049 6.18948L10.7625 7.17286L9.36016 7.21068ZM9.15416 4.77746L9.81176 5.76714L8.40942 5.80496L7.75182 4.81528L9.15416 4.77746ZM8.08458 6.24621L8.74218 7.22959L7.34775 7.26741L6.68224 6.28404L8.08458 6.24621ZM7.63298 7.69606L9.03532 7.65824L9.69292 8.64161L8.29057 8.68574L7.63298 7.69606ZM10.303 8.62901L9.64538 7.64563L11.0477 7.60781L11.7053 8.59118L10.303 8.62901ZM11.3646 7.15394L10.707 6.16427L12.1094 6.12645L12.767 7.11612L11.3646 7.15394ZM12.4342 5.69149L11.7766 4.70812L13.179 4.6703L13.8366 5.64737L12.4342 5.69149ZM11.4914 4.27316L10.8338 3.28979L12.2362 3.25197L12.8937 4.23534L11.4914 4.27316ZM0.832005 7.70867C1.39126 7.74672 1.91554 7.94102 2.31199 8.25715C2.70845 8.57328 2.95151 8.99084 2.99811 9.43588C2.55379 9.44862 2.1149 9.35485 1.73838 9.16671C1.46556 9.01807 1.24692 8.81475 1.10455 8.57732C0.948355 8.32577 0.855754 8.05227 0.832005 7.77234V7.70867Z" fill="white"/>
</svg>
