<svg width="44" height="44" viewBox="0 0 44 44" fill="none" xmlns="http://www.w3.org/2000/svg">
<path d="M35.9277 4.6875V0H7.8125V4.6875H0V8.39844C0 11.5234 0.927734 14.5303 2.61328 16.8564C3.91504 18.6533 5.9502 19.8936 7.78027 20.4902C8.31152 23.3506 9.75293 26.0693 12.6816 28.2861C14.8301 29.9131 17.4131 31.1055 19.7266 31.5928V39.4531H12.5V43.75H31.25V39.4531H24.0234V31.5928C26.3369 31.1045 28.9189 29.9131 31.0684 28.2861C33.998 26.0693 35.4385 23.3506 35.9697 20.4902C37.7998 19.8936 39.835 18.6533 41.1367 16.8564C42.8223 14.5303 43.75 11.5234 43.75 8.39844V4.6875H35.9277ZM6.09375 14.3359C5.05078 12.9023 4.41699 10.9766 4.3125 8.98438H7.8125V15.5635C7.42773 15.4521 6.55078 14.9658 6.09375 14.3359ZM37.6562 14.3359C37.207 14.9814 36.5234 15.5645 35.9375 15.5645C35.9375 13.377 35.9375 11.0439 35.9326 8.98438H39.4385C39.333 10.9766 38.6719 12.8809 37.6562 14.3359Z" fill="#8CC92D"/>
</svg>
