<svg width="21" height="21" viewBox="0 0 21 21" fill="none" xmlns="http://www.w3.org/2000/svg">
<path d="M10.0297 0.925781C15.5448 0.925781 20.0154 5.31833 20.0154 10.7372C20.0154 16.156 15.5448 20.5485 10.0297 20.5485C4.51457 20.5485 0.0439453 16.156 0.0439453 10.7372C0.0439453 5.31833 4.51457 0.925781 10.0297 0.925781ZM11.6973 14.6617H8.36207L6.98404 16.5229L7.53725 18.1967C8.34181 18.4555 9.18312 18.587 10.0297 18.5863C10.8995 18.5863 11.7373 18.4489 12.5221 18.1967L13.0744 16.5229L11.6973 14.6617ZM3.33325 9.63043L2.04309 10.5507L2.0411 10.7372C2.0411 12.4345 2.58931 14.0053 3.52098 15.2896H5.42826L6.74938 13.504L5.72284 10.3938L3.33325 9.63043ZM16.7261 9.63043L14.3365 10.3938L13.31 13.504L14.6301 15.2896H16.5374C17.5031 13.9615 18.021 12.3694 18.0183 10.7372L18.0153 10.5498L16.7261 9.63043ZM12.3164 3.21478L11.0283 4.13704V6.60657L13.7184 8.52665L15.9552 7.81337L16.5085 6.14249C15.4783 4.73958 14.0053 3.71034 12.3184 3.21478M7.74296 3.21478C6.05594 3.7106 4.58293 4.74019 3.55294 6.14347L4.10615 7.81337L6.34196 8.52665L9.03112 6.60657V4.13704L7.74296 3.21478Z" fill="white"/>
</svg>
