<svg width="19" height="19" viewBox="0 0 19 19" fill="none" xmlns="http://www.w3.org/2000/svg">
<path d="M15.6716 3.47951C14.1405 2.02252 12.3303 1.18365 10.2318 0.962891V4.15944L18.3374 8.7335C18.0853 6.70254 17.1936 4.9365 15.6716 3.47951ZM9.33119 18.6234C12.4293 18.6234 14.879 17.4048 16.6893 14.9676L13.8884 13.3252L5.79174 17.9169C6.91752 18.3849 8.10635 18.6234 9.33119 18.6234ZM10.2318 9.27214L17.5719 13.387C17.9682 12.557 18.2294 11.6828 18.3374 10.7733L10.2318 6.19922V9.27214ZM2.01813 14.9235C2.61254 15.727 3.26099 16.3805 3.97248 16.8573L12.0691 12.3539L9.33119 10.8086L2.01813 14.9235ZM8.4666 0.962891C7.52995 1.04236 6.62932 1.28078 5.7287 1.66931V10.8086L8.4666 9.27214V0.962891ZM0.324951 9.79313C0.324951 11.0205 0.595139 12.2391 1.12651 13.4312L3.92745 11.8064V2.72894C1.52278 4.49498 0.324951 6.835 0.324951 9.79313Z" fill="white"/>
</svg>
