<svg width="21" height="21" viewBox="0 0 21 21" fill="none" xmlns="http://www.w3.org/2000/svg">
<path d="M1.646 15.9248L2.77169 16.5529C3.49214 16.9548 4.30264 16.9548 5.02309 16.5529C5.74354 16.1509 6.55404 16.1509 7.27449 16.5529C7.99493 16.9548 8.80543 16.9548 9.52588 16.5529C10.2463 16.1509 11.0568 16.1509 11.7773 16.5529C12.4977 16.9548 13.3082 16.9548 14.0287 16.5529C14.7491 16.1509 15.5596 16.1509 16.2801 16.5529C17.0005 16.9548 17.811 16.9548 18.5315 16.5529L19.6572 15.9248" stroke="white" stroke-width="2" stroke-miterlimit="2" stroke-linecap="round" stroke-linejoin="round"/>
<path d="M1.646 18.7129L2.77169 19.341C3.49214 19.7429 4.30264 19.7429 5.02309 19.341C5.74354 18.939 6.55404 18.939 7.27449 19.341C7.99493 19.7429 8.80543 19.7429 9.52588 19.341C10.2463 18.939 11.0568 18.939 11.7773 19.341C12.4977 19.7429 13.3082 19.7429 14.0287 19.341C14.7491 18.939 15.5596 18.939 16.2801 19.341C17.0005 19.7429 17.811 19.7429 18.5315 19.341L19.6572 18.7129" stroke="white" stroke-width="2" stroke-miterlimit="2" stroke-linecap="round" stroke-linejoin="round"/>
<path d="M19.4714 13.1364C19.827 11.3569 19.6784 9.44727 18.9357 7.6492C16.9956 2.92395 11.7064 0.716978 7.133 2.72416C3.12675 4.48044 0.99308 8.87582 1.82134 13.1085" stroke="white" stroke-width="2" stroke-miterlimit="2" stroke-linecap="round" stroke-linejoin="round"/>
<path d="M7.04921 2.91162C6.36028 6.24387 7.85517 9.46923 10.6514 11.2771" stroke="white" stroke-width="2" stroke-miterlimit="2" stroke-linecap="round" stroke-linejoin="round"/>
<path d="M10.3765 13.1359C10.5342 12.5363 10.6288 11.9136 10.6513 11.2769" stroke="white" stroke-width="2" stroke-miterlimit="2" stroke-linecap="round" stroke-linejoin="round"/>
<path d="M19.657 12.2074C17.2029 9.92547 13.5647 9.67915 10.6514 11.2779" stroke="white" stroke-width="2" stroke-miterlimit="2" stroke-linecap="round" stroke-linejoin="round"/>
<path d="M7.94971 7.55941C7.94971 7.55941 12.7047 3.61368 18.3061 6.62991" stroke="white" stroke-width="2" stroke-miterlimit="2" stroke-linecap="round" stroke-linejoin="round"/>
<path d="M5.69826 13.1354C4.35192 11.6157 3.11365 9.55218 2.99658 6.62891" stroke="white" stroke-width="2" stroke-miterlimit="2" stroke-linecap="round" stroke-linejoin="round"/>
<path d="M15.2938 10.3901C15.2938 10.3901 15.3929 11.552 15.1226 13.1554" stroke="white" stroke-width="2" stroke-miterlimit="2" stroke-linecap="round" stroke-linejoin="round"/>
</svg>
